<svg width="128" height="128" viewBox="0 0 128 128" fill="none" xmlns="http://www.w3.org/2000/svg">
<path d="M101.333 21.3333C105.577 21.3333 109.646 23.0191 112.647 26.0196C115.648 29.0202 117.333 33.0899 117.333 37.3333V90.6667C117.333 94.9102 115.648 98.9798 112.647 101.98C109.646 104.981 105.577 106.667 101.333 106.667H26.6667C22.4232 106.667 18.3535 104.981 15.353 101.98C12.3524 98.9798 10.6667 94.9102 10.6667 90.6667V37.3333C10.6667 33.0899 12.3524 29.0202 15.353 26.0196C18.3535 23.0191 22.4232 21.3333 26.6667 21.3333H101.333ZM32.0533 37.3333L31.376 37.3707C30.0262 37.5312 28.7886 38.2012 27.9161 39.2436C27.0436 40.286 26.6021 41.6222 26.6818 42.9792C26.7614 44.3363 27.3563 45.6117 28.3447 46.5448C29.3332 47.478 30.6407 47.9985 32 48L32.6773 47.9627C34.0272 47.8021 35.2648 47.1322 36.1373 46.0898C37.0097 45.0474 37.4513 43.7111 37.3716 42.3541C37.2919 40.9971 36.6971 39.7217 35.7086 38.7885C34.7202 37.8554 33.4127 37.3349 32.0533 37.3333ZM48.0533 37.3333L47.376 37.3707C46.0262 37.5312 44.7886 38.2012 43.9161 39.2436C43.0436 40.286 42.6021 41.6222 42.6818 42.9792C42.7614 44.3363 43.3563 45.6117 44.3447 46.5448C45.3332 47.478 46.6407 47.9985 48 48L48.6773 47.9627C50.0272 47.8021 51.2648 47.1322 52.1373 46.0898C53.0098 45.0474 53.4513 43.7111 53.3716 42.3541C53.2919 40.9971 52.6971 39.7217 51.7086 38.7885C50.7202 37.8554 49.4127 37.3349 48.0533 37.3333Z" fill="white"/>
</svg>
