<svg width="128" height="102" viewBox="0 0 128 102" fill="none" xmlns="http://www.w3.org/2000/svg">
<g clip-path="url(#clip0_3_16)">
<path d="M108.617 0.333342C113.669 0.333342 118.514 2.34039 122.087 5.91296C125.66 9.48553 127.667 14.331 127.667 19.3834V82.8834C127.667 87.9358 125.66 92.7812 122.087 96.3538C118.514 99.9263 113.669 101.933 108.617 101.933H19.7167C14.6643 101.933 9.81886 99.9263 6.24629 96.3538C2.67372 92.7812 0.666672 87.9358 0.666672 82.8834V19.3834C0.666672 14.331 2.67372 9.48553 6.24629 5.91296C9.81886 2.34039 14.6643 0.333342 19.7167 0.333342H108.617ZM26.1302 19.3834L25.3237 19.4278C23.7166 19.619 22.2431 20.4166 21.2043 21.6577C20.1655 22.8988 19.6398 24.4898 19.7346 26.1055C19.8295 27.7212 20.5377 29.2397 21.7146 30.3508C22.8915 31.4618 24.4482 32.0816 26.0667 32.0834L26.8731 32.0389C28.4803 31.8478 29.9538 31.0501 30.9926 29.809C32.0314 28.5679 32.5571 26.9769 32.4622 25.3612C32.3674 23.7455 31.6591 22.227 30.4823 21.1159C29.3054 20.0049 27.7487 19.3851 26.1302 19.3834ZM45.1802 19.3834L44.3737 19.4278C42.7666 19.619 41.293 20.4166 40.2542 21.6577C39.2155 22.8988 38.6898 24.4898 38.7846 26.1055C38.8795 27.7212 39.5877 29.2397 40.7646 30.3508C41.9415 31.4618 43.4982 32.0816 45.1167 32.0834L45.9231 32.0389C47.5303 31.8478 49.0038 31.0501 50.0426 29.809C51.0814 28.5679 51.6071 26.9769 51.5122 25.3612C51.4174 23.7455 50.7091 22.227 49.5323 21.1159C48.3554 20.0049 46.7987 19.3851 45.1802 19.3834Z" fill="black"/>
</g>
<defs>
<clipPath id="clip0_3_16">
<rect width="128" height="102" fill="white"/>
</clipPath>
</defs>
</svg>
